<svg version="1.1" id="Layer_1" xmlns="http://www.w3.org/2000/svg" xmlns:xlink="http://www.w3.org/1999/xlink" x="0px" y="0px"
	 width="100%" viewBox="0 0 265 220" enable-background="new 0 0 265 220" xml:space="preserve">
<path fill="#000000" opacity="1.000000" stroke="none" 
	d="
M164.000000,221.000000 
	C109.333336,221.000000 55.166672,221.000000 1.000007,221.000000 
	C1.000005,147.666672 1.000005,74.333351 1.000002,1.000017 
	C89.333321,1.000011 177.666641,1.000011 266.000000,1.000006 
	C266.000000,74.333321 266.000000,147.666641 266.000000,220.999969 
	C232.166672,221.000000 198.333328,221.000000 164.000000,221.000000 
M199.315750,179.995712 
	C198.866608,180.055832 198.417480,180.115952 197.166672,180.388062 
	C193.622223,180.665558 190.077774,180.943054 186.036453,181.259460 
	C186.036453,176.108917 186.179306,171.648605 185.987061,167.202805 
	C185.855194,164.153076 185.257446,161.123505 184.761459,157.407211 
	C182.506104,153.424637 178.150208,152.459824 175.090393,154.069748 
	C172.834030,155.256973 171.512497,159.635101 171.176193,162.743149 
	C170.595840,168.106720 171.105194,173.588181 171.009964,179.504715 
	C170.977951,179.670471 170.945938,179.836212 169.993042,180.007996 
	C157.293442,179.999374 144.593124,180.050095 131.895294,179.895630 
	C130.539200,179.879150 129.197693,178.665070 127.992386,177.076828 
	C127.996422,167.486145 128.044815,157.895081 127.958031,148.305222 
	C127.944557,146.817169 127.312653,145.334717 127.084137,143.091812 
	C126.493507,139.240097 123.623421,138.175476 120.396614,138.110886 
	C117.716103,138.057220 114.549026,137.847961 113.248047,142.237762 
	C113.164612,157.057175 113.071190,171.876587 113.042664,186.696106 
	C113.041740,187.173996 113.704620,187.653168 114.034271,188.852097 
	C114.869003,191.824890 116.485634,193.873993 120.841461,193.977570 
	C154.562866,193.926712 188.284286,193.875854 222.934555,193.951813 
	C229.403610,193.956665 235.872665,193.969376 242.341721,193.963882 
	C247.473434,193.959518 251.030640,191.260529 250.973663,187.441025 
	C250.921066,183.913254 247.285721,181.055710 242.548599,181.017883 
	C235.749374,180.963608 228.949142,181.035812 221.791382,180.297455 
	C219.857681,180.160965 217.923996,180.024460 216.008041,179.979553 
	C216.008041,179.979553 216.099014,179.958801 216.002853,179.031937 
	C215.956146,160.363739 215.909439,141.695541 216.018616,122.133064 
	C216.062851,110.225510 210.496338,104.741875 200.146881,106.566963 
	C200.146881,109.692757 200.146881,112.830544 200.013367,116.822304 
	C200.079102,118.546593 200.144821,120.270882 200.037888,122.728699 
	C200.012421,123.485207 199.986954,124.241714 199.028992,125.003731 
	C179.666962,125.055931 160.304947,125.108124 140.226883,125.324074 
	C136.257385,125.473076 135.527100,128.620590 135.507263,131.405502 
	C135.485611,134.445114 135.476746,138.139648 140.834091,139.008865 
	C160.531876,139.035873 180.229660,139.062897 199.990860,140.014679 
	C200.044250,145.362595 200.097641,150.710510 200.014572,156.982559 
	C199.982712,164.641327 199.950851,172.300110 199.985550,179.980469 
	C199.985550,179.980469 199.991653,179.910767 199.315750,179.995712 
M84.017960,73.933571 
	C84.012909,80.682083 83.941528,87.431664 84.051048,94.178314 
	C84.077301,95.795776 84.705154,97.403473 84.776329,99.615494 
	C84.072350,104.492516 88.083549,104.634102 91.957069,105.993095 
	C120.168411,105.994904 148.379776,106.012093 176.591003,105.955620 
	C178.088654,105.952621 179.585068,105.327286 181.681824,105.272461 
	C183.127365,103.636909 185.242874,102.224693 185.878113,100.319038 
	C187.176147,96.425125 184.633011,94.293495 180.801086,92.263664 
	C179.150589,92.175919 177.500229,92.014175 175.849594,92.011505 
	C150.246078,91.970047 124.642525,91.949226 99.006996,90.995461 
	C98.950287,78.996536 98.893570,66.997620 98.935913,54.066795 
	C98.946899,48.733658 99.077240,43.397419 98.938499,38.068176 
	C98.767365,31.494608 92.617218,27.405033 86.095009,28.249702 
	C80.423843,28.984156 74.525124,28.893866 68.830078,28.252508 
	C62.996487,27.595549 58.385574,29.735649 56.942181,35.569801 
	C56.201889,38.562050 56.313251,41.765007 55.232063,45.265770 
	C55.187416,58.554474 55.142765,71.843178 54.899540,85.791710 
	C49.081356,91.388290 43.208607,96.929581 37.463135,102.599838 
	C33.253517,106.754356 29.390297,111.273026 25.044258,115.272499 
	C20.574533,119.385803 19.748735,122.071114 22.796206,125.466301 
	C25.963362,128.994858 30.643822,128.788101 34.485672,124.989273 
	C37.464447,122.043854 40.495335,119.151184 43.479267,116.210930 
	C52.301884,107.517464 61.112694,98.812019 70.753967,89.746727 
	C70.792450,76.443604 70.830940,63.140488 71.060493,49.102425 
	C69.910355,43.564583 70.353546,43.092285 75.910324,42.934910 
	C78.297241,42.867306 80.671875,42.366486 83.358360,42.841187 
	C83.567032,44.432945 83.935722,46.022511 83.957626,47.616833 
	C84.073860,56.079586 84.103050,64.543541 84.017960,73.933571 
M56.013657,160.823822 
	C57.482349,166.120895 61.491295,166.348221 66.836555,165.941986 
	C72.757904,165.941986 78.679245,165.941986 84.967735,165.941986 
	C84.967735,170.842529 84.967735,175.371185 84.208443,180.282913 
	C76.819756,180.526138 69.431061,180.769379 61.671272,180.207687 
	C49.819447,180.136749 37.967621,180.043060 26.115793,180.043533 
	C25.282736,180.043564 24.449707,180.739136 23.028721,181.382004 
	C17.635546,186.935760 17.613317,188.892303 23.126011,193.389542 
	C26.786791,193.917496 30.450626,194.909241 34.107773,194.885162 
	C44.462143,194.817017 54.812775,194.293839 65.166893,194.028412 
	C70.785728,193.884354 76.408669,193.900162 82.890099,193.960739 
	C84.913109,193.922897 86.936111,193.885040 89.775101,193.992416 
	C94.202278,194.357025 97.373444,192.963226 98.830635,187.667892 
	C98.889107,178.535721 98.975075,169.403519 98.959297,160.271469 
	C98.957870,159.448151 98.299728,158.625961 97.992958,157.123352 
	C95.015930,153.162811 93.901054,152.586029 89.087463,153.040512 
	C86.393890,153.010651 83.700325,152.980789 80.565247,152.272125 
	C77.390099,152.490509 74.214958,152.708893 70.992294,152.390915 
	C70.947983,152.216980 70.903671,152.043060 70.979294,150.955582 
	C70.918030,139.645264 70.856758,128.334946 70.914307,116.120247 
	C70.951965,113.635643 71.158142,111.139160 70.984093,108.669479 
	C70.772507,105.667252 67.035011,102.368729 65.044571,103.490883 
	C60.704342,105.937737 56.548878,108.738556 55.002533,114.954056 
	C54.999435,128.504730 54.966568,142.055557 55.035408,155.605865 
	C55.042999,157.098846 55.633041,158.588882 56.013657,160.823822 
M85.217606,206.202576 
	C83.715027,208.007401 82.449554,209.832550 85.209915,212.735580 
	C96.350319,212.821030 107.490685,212.919662 118.631233,212.948654 
	C119.129204,212.949951 119.628830,212.318588 120.759804,211.732956 
	C123.492516,209.331253 121.104385,207.801941 119.688393,205.200012 
	C109.073021,205.135513 98.457664,205.052643 87.842270,205.050003 
	C87.171471,205.049850 86.500519,205.675049 85.217606,206.202576 
M185.829086,211.718277 
	C188.479706,209.295425 186.121216,207.781357 184.680725,205.193802 
	C174.081177,205.129303 163.481644,205.046844 152.882080,205.044174 
	C152.234741,205.044006 151.587219,205.675781 150.309204,206.250809 
	C147.079391,208.751236 147.832840,210.904877 151.840302,212.990540 
	C161.460648,212.993042 171.081375,213.039612 180.700912,212.952316 
	C182.205063,212.938660 183.703705,212.316116 185.829086,211.718277 
M219.946304,110.564720 
	C225.359772,115.651604 230.707428,120.811134 236.211746,125.797729 
	C239.438538,128.721039 244.226318,128.443268 246.965546,125.470718 
	C250.022339,122.153587 249.914383,119.412758 246.248566,115.735596 
	C244.400177,113.881477 242.115585,112.470108 240.185974,110.687767 
	C230.471069,101.714409 220.793915,92.700027 211.130295,83.671387 
	C195.650452,69.208725 180.156982,54.760357 164.738861,40.232094 
	C157.150223,33.081432 149.744141,25.737446 142.203796,18.535013 
	C138.047501,14.564988 132.359833,14.301060 128.241608,18.261106 
	C121.151260,25.079086 114.471619,32.327087 107.320625,39.077915 
	C103.466545,42.716328 101.328209,46.410095 102.827484,51.856689 
	C103.326096,53.668049 102.571762,55.794121 102.613548,57.771595 
	C102.643494,59.188751 103.045021,60.598061 103.400871,62.730602 
	C105.140137,61.224537 106.168709,60.439186 107.075607,59.532173 
	C115.439331,51.167473 123.800415,42.799931 132.117065,34.388512 
	C134.041672,32.441975 135.607513,31.034956 138.271667,33.684593 
	C143.772797,39.155731 149.550400,44.349075 155.220261,49.650303 
	C165.468399,59.232155 175.746384,68.782234 185.964722,78.395744 
	C197.152328,88.921127 208.286530,99.503288 219.946304,110.564720 
M134.621613,216.963837 
	C139.721252,217.689575 141.776459,213.936661 142.622269,210.286362 
	C143.025467,208.546249 140.850418,205.580826 139.067352,204.112747 
	C136.543976,202.035095 132.957520,201.429688 130.426743,203.989944 
	C128.717621,205.718964 126.688705,209.112564 127.343239,210.739670 
	C128.360931,213.269577 131.539642,214.930191 134.621613,216.963837 
z"/>
<path fill="#0B7F7E" opacity="1.000000" stroke="none" 
	d="
M69.928123,90.111267 
	C61.112694,98.812019 52.301884,107.517464 43.479267,116.210930 
	C40.495335,119.151184 37.464447,122.043854 34.485672,124.989273 
	C30.643822,128.788101 25.963362,128.994858 22.796206,125.466301 
	C19.748735,122.071114 20.574533,119.385803 25.044258,115.272499 
	C29.390297,111.273026 33.253517,106.754356 37.463135,102.599838 
	C43.208607,96.929581 49.081356,91.388290 55.347382,85.191521 
	C55.876724,71.351799 55.958225,58.112270 56.039726,44.872738 
	C56.313251,41.765007 56.201889,38.562050 56.942181,35.569801 
	C58.385574,29.735649 62.996487,27.595549 68.830078,28.252508 
	C74.525124,28.893866 80.423843,28.984156 86.095009,28.249702 
	C92.617218,27.405033 98.767365,31.494608 98.938499,38.068176 
	C99.077240,43.397419 98.946899,48.733658 98.558685,54.803642 
	C98.120720,67.121353 98.038284,78.702232 98.044411,90.283058 
	C98.044853,91.122124 98.689377,91.960854 99.490997,92.902145 
	C127.024391,93.035233 154.101242,93.065918 181.178085,93.096603 
	C184.633011,94.293495 187.176147,96.425125 185.878113,100.319038 
	C185.242874,102.224693 183.127365,103.636909 180.907440,105.118774 
	C152.357666,104.984123 124.582245,104.986969 96.806984,105.057381 
	C94.881104,105.062263 92.956497,105.569878 91.031303,105.843704 
	C88.083549,104.634102 84.072350,104.492516 84.913643,98.846085 
	C84.989777,89.721039 84.928596,81.365402 84.940506,72.545517 
	C85.032463,63.455982 85.141121,54.829021 84.979401,46.207130 
	C84.953270,44.814022 83.724792,43.443470 83.052094,42.062492 
	C80.671875,42.366486 78.297241,42.867306 75.910324,42.934910 
	C70.353546,43.092285 69.910355,43.564583 70.582657,49.701759 
	C70.045921,63.571148 69.987022,76.841209 69.928123,90.111267 
z"/>
<path fill="#0F7F7E" opacity="1.000000" stroke="none" 
	d="
M219.695145,110.312714 
	C208.286530,99.503288 197.152328,88.921127 185.964722,78.395744 
	C175.746384,68.782234 165.468399,59.232155 155.220261,49.650303 
	C149.550400,44.349075 143.772797,39.155731 138.271667,33.684593 
	C135.607513,31.034956 134.041672,32.441975 132.117065,34.388512 
	C123.800415,42.799931 115.439331,51.167473 107.075607,59.532173 
	C106.168709,60.439186 105.140137,61.224537 103.400871,62.730602 
	C103.045021,60.598061 102.643494,59.188751 102.613548,57.771595 
	C102.571762,55.794121 103.326096,53.668049 102.827484,51.856689 
	C101.328209,46.410095 103.466545,42.716328 107.320625,39.077915 
	C114.471619,32.327087 121.151260,25.079086 128.241608,18.261106 
	C132.359833,14.301060 138.047501,14.564988 142.203796,18.535013 
	C149.744141,25.737446 157.150223,33.081432 164.738861,40.232094 
	C180.156982,54.760357 195.650452,69.208725 211.130295,83.671387 
	C220.793915,92.700027 230.471069,101.714409 240.185974,110.687767 
	C242.115585,112.470108 244.400177,113.881477 246.248566,115.735596 
	C249.914383,119.412758 250.022339,122.153587 246.965546,125.470718 
	C244.226318,128.443268 239.438538,128.721039 236.211746,125.797729 
	C230.707428,120.811134 225.359772,115.651604 219.695145,110.312714 
z"/>
<path fill="#28B3B2" opacity="1.000000" stroke="none" 
	d="
M222.149338,181.054001 
	C228.949142,181.035812 235.749374,180.963608 242.548599,181.017883 
	C247.285721,181.055710 250.921066,183.913254 250.973663,187.441025 
	C251.030640,191.260529 247.473434,193.959518 242.341721,193.963882 
	C235.872665,193.969376 229.403610,193.956665 222.149384,193.620316 
	C220.544037,193.189148 219.723892,193.002716 218.903671,193.002319 
	C187.153030,192.986816 155.402374,192.978943 123.651787,193.022324 
	C122.397865,193.024033 121.144653,193.535751 119.891106,193.809845 
	C116.485634,193.873993 114.869003,191.824890 114.077728,188.037659 
	C114.165192,184.818695 114.209190,182.414154 114.419868,179.788834 
	C114.719444,179.035797 114.852348,178.503555 115.367493,177.969406 
	C120.331009,176.044983 124.212143,176.037766 126.084747,181.688812 
	C126.145615,181.872513 126.683281,181.898193 127.278229,181.992401 
	C127.743935,181.978226 127.930107,181.969193 128.342758,181.991821 
	C128.569244,182.023483 129.001785,182.172211 129.345856,182.398895 
	C142.394638,182.736191 155.100693,182.984253 167.803024,182.857559 
	C170.855469,182.827118 174.022354,181.952332 175.178009,178.084198 
	C175.414459,177.292786 177.587173,176.695480 178.863266,176.703018 
	C180.244873,176.711151 181.621704,177.531860 183.000305,177.999084 
	C183.000000,178.000000 183.001831,177.999390 183.023743,178.219482 
	C183.192841,178.665375 183.339996,178.891144 183.487167,179.116928 
	C183.618378,178.744202 183.749588,178.371490 183.908844,177.531311 
	C184.247253,170.737549 184.557602,164.411224 184.867950,158.084915 
	C185.257446,161.123505 185.855194,164.153076 185.987061,167.202805 
	C186.179306,171.648605 186.036453,176.108917 186.036453,181.259460 
	C190.077774,180.943054 193.622223,180.665558 197.739136,180.518860 
	C198.871628,180.403366 199.431641,180.157059 199.991653,179.910767 
	C199.991653,179.910767 199.985550,179.980469 200.239716,180.049530 
	C200.689255,180.081467 200.884644,180.044327 201.302505,179.766602 
	C201.692764,178.676056 201.860565,177.826080 202.424622,176.982254 
	C206.500397,177.206970 210.175278,173.479553 213.918243,177.250046 
	C214.230316,178.011673 214.482773,178.498718 214.870758,179.295502 
	C215.370529,179.723083 215.734772,179.840942 216.099014,179.958801 
	C216.099014,179.958801 216.008041,179.979553 216.120255,180.338501 
	C218.204758,180.816315 220.177048,180.935150 222.149338,181.054001 
z"/>
<path fill="#28B2B2" opacity="1.000000" stroke="none" 
	d="
M88.959122,193.847198 
	C86.936111,193.885040 84.913109,193.922897 82.148438,193.617554 
	C74.469200,193.170319 67.531807,193.050629 60.593990,192.965622 
	C48.030128,192.811691 35.466007,192.678421 22.901997,192.536530 
	C17.613317,188.892303 17.635546,186.935760 23.816502,181.336060 
	C37.083645,181.197601 49.563007,181.105087 62.042370,181.012589 
	C69.431061,180.769379 76.819756,180.526138 84.660683,180.398956 
	C85.737137,180.224380 86.792763,180.055679 86.914986,179.623199 
	C87.662056,176.979736 87.363503,173.213135 89.041664,171.897125 
	C90.666046,170.623306 94.251747,171.850540 96.984253,172.447723 
	C96.995659,174.239685 96.997360,175.563171 97.002213,176.886642 
	C97.027023,183.649902 98.396812,191.053955 89.131203,193.396713 
	C89.041603,193.419357 89.015091,193.691513 88.959122,193.847198 
z"/>
<path fill="#138988" opacity="1.000000" stroke="none" 
	d="
M139.875137,138.892380 
	C135.476746,138.139648 135.485611,134.445114 135.507263,131.405502 
	C135.527100,128.620590 136.257385,125.473076 140.890564,125.538712 
	C160.995651,125.771469 180.437027,125.789597 200.153534,125.843491 
	C200.613586,125.883286 200.798492,125.887314 201.286728,126.173431 
	C205.681137,126.349136 209.772217,126.242737 213.908783,126.577988 
	C213.664703,130.376968 213.375168,133.734314 212.807495,136.862579 
	C207.960846,132.903732 205.397690,137.890381 201.703552,138.931244 
	C200.933868,138.550217 200.418304,138.303635 199.440521,138.038361 
	C180.841797,138.007385 162.705231,137.972733 144.568909,138.022430 
	C143.003525,138.026718 141.439697,138.589188 139.875137,138.892380 
z"/>
<path fill="#1FA9A8" opacity="1.000000" stroke="none" 
	d="
M96.975998,171.979248 
	C94.251747,171.850540 90.666046,170.623306 89.041664,171.897125 
	C87.363503,173.213135 87.662056,176.979736 86.914986,179.623199 
	C86.792763,180.055679 85.737137,180.224380 85.040329,180.207413 
	C84.967735,175.371185 84.967735,170.842529 84.967735,165.941986 
	C78.679245,165.941986 72.757904,165.941986 66.254631,165.526733 
	C57.157486,161.667618 57.037498,161.511856 57.479385,153.994354 
	C62.253574,154.944077 66.642326,157.698944 71.465828,153.998322 
	C74.942261,153.649048 77.974510,153.299988 81.006752,152.950928 
	C83.700325,152.980789 86.393890,153.010651 89.719536,153.318146 
	C96.249847,155.553894 97.221802,160.225052 97.008011,165.591400 
	C96.923294,167.717728 96.982384,169.849792 96.975998,171.979248 
z"/>
<path fill="#25ACAD" opacity="1.000000" stroke="none" 
	d="
M183.000610,177.998169 
	C181.621704,177.531860 180.244873,176.711151 178.863266,176.703018 
	C177.587173,176.695480 175.414459,177.292786 175.178009,178.084198 
	C174.022354,181.952332 170.855469,182.827118 167.803024,182.857559 
	C155.100693,182.984253 142.394638,182.736191 129.774933,182.349030 
	C133.933853,181.736252 138.003769,181.185760 142.082596,181.109116 
	C150.178207,180.956970 158.279419,181.119980 166.376648,181.019043 
	C167.893051,181.000137 169.401703,180.357025 170.913925,180.001968 
	C170.945938,179.836212 170.977951,179.670471 171.448242,179.119675 
	C172.246597,178.031738 172.900345,177.336395 172.918655,176.624695 
	C173.029678,172.309769 173.085983,167.988983 172.985001,163.674271 
	C172.882492,159.294846 175.783264,159.165543 178.977219,158.957748 
	C182.521484,158.727173 183.117203,160.603470 183.036224,163.551880 
	C182.904068,168.363998 183.000580,173.182419 183.000610,177.998169 
z"/>
<path fill="#36B5B4" opacity="1.000000" stroke="none" 
	d="
M184.805817,206.078033 
	C186.121216,207.781357 188.479706,209.295425 185.033630,211.815887 
	C176.498337,211.946838 168.756989,211.901382 161.019363,212.049957 
	C157.637146,212.114883 154.262543,212.576782 150.884491,212.858414 
	C147.832840,210.904877 147.079391,208.751236 151.095169,206.180023 
	C162.856033,206.098846 173.830917,206.088455 184.805817,206.078033 
z"/>
<path fill="#36B5B3" opacity="1.000000" stroke="none" 
	d="
M84.724113,211.961075 
	C82.449554,209.832550 83.715027,208.007401 86.001274,206.160767 
	C97.789352,206.108749 108.793762,206.098526 119.798172,206.088303 
	C121.104385,207.801941 123.492516,209.331253 119.965759,211.848206 
	C107.689186,211.962677 96.206650,211.961868 84.724113,211.961075 
z"/>
<path fill="#37B5B4" opacity="1.000000" stroke="none" 
	d="
M134.212006,216.961548 
	C131.539642,214.930191 128.360931,213.269577 127.343239,210.739670 
	C126.688705,209.112564 128.717621,205.718964 130.426743,203.989944 
	C132.957520,201.429688 136.543976,202.035095 139.067352,204.112747 
	C140.850418,205.580826 143.025467,208.546249 142.622269,210.286362 
	C141.776459,213.936661 139.721252,217.689575 134.212006,216.961548 
z"/>
<path fill="#C6E0E1" opacity="1.000000" stroke="none" 
	d="
M55.162781,114.033211 
	C56.548878,108.738556 60.704342,105.937737 65.044571,103.490883 
	C67.035011,102.368729 70.772507,105.667252 70.984093,108.669479 
	C71.158142,111.139160 70.951965,113.635643 70.655022,116.587601 
	C70.395737,117.054955 69.996071,117.023399 69.611526,116.872032 
	C64.944077,116.631989 60.661160,116.543304 56.261612,116.130859 
	C55.817585,115.215790 55.490185,114.624504 55.162781,114.033211 
z"/>
<path fill="#179F9E" opacity="1.000000" stroke="none" 
	d="
M71.021637,153.998520 
	C66.642326,157.698944 62.253574,154.944077 57.454590,153.592255 
	C57.356140,151.107712 57.670593,149.048630 57.878609,146.801712 
	C57.602913,146.372925 57.383881,146.192413 57.093788,145.719452 
	C57.089619,144.895828 57.106731,144.425079 57.494827,143.904266 
	C60.935600,143.626038 64.005386,143.397858 67.140854,143.541611 
	C68.089554,146.287613 68.972580,148.661697 69.957764,151.246155 
	C70.247986,151.745972 70.514465,151.883514 70.859352,151.869125 
	C70.903671,152.043060 70.947983,152.216980 71.009003,152.926788 
	C71.024361,153.641281 71.023003,153.819901 71.021637,153.998520 
z"/>
<path fill="#28A2A0" opacity="1.000000" stroke="none" 
	d="
M183.000305,177.999084 
	C183.000580,173.182419 182.904068,168.363998 183.036224,163.551880 
	C183.117203,160.603470 182.521484,158.727173 178.977219,158.957748 
	C175.783264,159.165543 172.882492,159.294846 172.985001,163.674271 
	C173.085983,167.988983 173.029678,172.309769 172.918655,176.624695 
	C172.900345,177.336395 172.246597,178.031738 171.521912,178.877411 
	C171.105194,173.588181 170.595840,168.106720 171.176193,162.743149 
	C171.512497,159.635101 172.834030,155.256973 175.090393,154.069748 
	C178.150208,152.459824 182.506104,153.424637 184.814697,157.746063 
	C184.557602,164.411224 184.247253,170.737549 183.689636,177.531586 
	C183.442383,177.999313 183.001831,177.999390 183.001831,177.999390 
	C183.001831,177.999390 183.000000,178.000000 183.000305,177.999084 
z"/>
<path fill="#2E9694" opacity="1.000000" stroke="none" 
	d="
M114.985252,177.971313 
	C114.852348,178.503555 114.719444,179.035797 114.355087,179.321808 
	C114.100639,166.658493 114.077652,154.241425 114.054672,141.824356 
	C114.549026,137.847961 117.716103,138.057220 120.396614,138.110886 
	C123.623421,138.175476 126.493507,139.240097 126.979782,143.932068 
	C126.847183,147.826736 126.818939,150.881149 126.586899,153.953033 
	C126.383095,153.970505 125.977859,154.026855 125.778214,153.895996 
	C125.331711,153.555313 125.141708,153.302734 125.010681,152.572571 
	C124.964302,150.499191 125.054077,148.842056 124.837051,147.226120 
	C124.446030,144.314667 122.937195,142.054520 119.752777,142.452484 
	C116.791847,142.822525 114.581161,144.427826 114.968285,148.075562 
	C115.175110,150.024399 115.027214,152.010849 115.026962,154.418884 
	C115.016533,156.895523 115.018547,158.933609 115.010246,161.440979 
	C114.995033,167.263931 114.990143,172.617630 114.985252,177.971313 
z"/>
<path fill="#97C8C8" opacity="1.000000" stroke="none" 
	d="
M200.210571,121.995171 
	C200.144821,120.270882 200.079102,118.546593 200.366653,116.175201 
	C204.092407,111.045586 208.440033,113.018196 212.370895,114.093651 
	C216.190048,115.138542 214.710800,118.544586 214.230179,121.123306 
	C209.270416,121.365204 204.740494,121.680191 200.210571,121.995171 
z"/>
<path fill="#8ADADB" opacity="1.000000" stroke="none" 
	d="
M120.366287,193.893707 
	C121.144653,193.535751 122.397865,193.024033 123.651787,193.022324 
	C155.402374,192.978943 187.153030,192.986816 218.903671,193.002319 
	C219.723892,193.002716 220.544037,193.189148 221.684952,193.556915 
	C188.284286,193.875854 154.562866,193.926712 120.366287,193.893707 
z"/>
<path fill="#DDEEEE" opacity="1.000000" stroke="none" 
	d="
M214.660019,121.196396 
	C214.710800,118.544586 216.190048,115.138542 212.370895,114.093651 
	C208.440033,113.018196 204.092407,111.045586 200.433411,115.748215 
	C200.146881,112.830544 200.146881,109.692757 200.146881,106.566963 
	C210.496338,104.741875 216.062851,110.225510 215.726852,122.571335 
	C215.435089,123.009613 215.007141,123.001999 214.921600,122.707024 
	C214.777390,122.006828 214.718704,121.601616 214.660019,121.196396 
z"/>
<path fill="#4C9998" opacity="1.000000" stroke="none" 
	d="
M91.494186,105.918404 
	C92.956497,105.569878 94.881104,105.062263 96.806984,105.057381 
	C124.582245,104.986969 152.357666,104.984123 180.607544,104.978378 
	C179.585068,105.327286 178.088654,105.952621 176.591003,105.955620 
	C148.379776,106.012093 120.168411,105.994904 91.494186,105.918404 
z"/>
<path fill="#C0EEEF" opacity="1.000000" stroke="none" 
	d="
M180.989594,92.680130 
	C154.101242,93.065918 127.024391,93.035233 99.508301,92.683212 
	C99.069069,92.361885 99.038979,91.923622 99.038979,91.923622 
	C124.642525,91.949226 150.246078,91.970047 175.849594,92.011505 
	C177.500229,92.014175 179.150589,92.175919 180.989594,92.680130 
z"/>
<path fill="#82D5D6" opacity="1.000000" stroke="none" 
	d="
M23.014004,192.963028 
	C35.466007,192.678421 48.030128,192.811691 60.593990,192.965622 
	C67.531807,193.050629 74.469200,193.170319 81.718269,193.559113 
	C76.408669,193.900162 70.785728,193.884354 65.166893,194.028412 
	C54.812775,194.293839 44.462143,194.817017 34.107773,194.885162 
	C30.450626,194.909241 26.786791,193.917496 23.014004,192.963028 
z"/>
<path fill="#349E9D" opacity="1.000000" stroke="none" 
	d="
M96.984253,172.447723 
	C96.982384,169.849792 96.923294,167.717728 97.008011,165.591400 
	C97.221802,160.225052 96.249847,155.553894 90.167465,153.287628 
	C93.901054,152.586029 95.015930,153.162811 97.916946,157.944046 
	C97.911354,168.536530 97.981766,178.308319 98.052185,188.080109 
	C97.373444,192.963226 94.202278,194.357025 89.367111,193.919800 
	C89.015091,193.691513 89.041603,193.419357 89.131203,193.396713 
	C98.396812,191.053955 97.027023,183.649902 97.002213,176.886642 
	C96.997360,175.563171 96.995659,174.239685 96.984253,172.447723 
z"/>
<path fill="#7FB6B4" opacity="1.000000" stroke="none" 
	d="
M140.354614,138.950623 
	C141.439697,138.589188 143.003525,138.026718 144.568909,138.022430 
	C162.705231,137.972733 180.841797,138.007385 199.456558,138.296219 
	C199.932373,138.745132 199.929901,138.917511 199.927444,139.089905 
	C180.229660,139.062897 160.531876,139.035873 140.354614,138.950623 
z"/>
<path fill="#37999A" opacity="1.000000" stroke="none" 
	d="
M199.959152,139.552292 
	C199.929901,138.917511 199.932373,138.745132 199.918793,138.314911 
	C200.418304,138.303635 200.933868,138.550217 201.711929,139.362213 
	C201.990829,141.956024 202.007233,143.984421 202.014832,146.465668 
	C202.025146,149.949219 202.044296,152.979919 202.052307,156.478333 
	C202.036896,163.622757 202.032654,170.299438 202.028381,176.976120 
	C201.860565,177.826080 201.692764,178.676056 201.294907,179.297943 
	C201.064667,177.250793 201.134964,175.428467 201.051346,173.613220 
	C200.781754,167.760223 200.455475,161.909821 200.151031,156.058426 
	C200.097641,150.710510 200.044250,145.362595 199.959152,139.552292 
z"/>
<path fill="#8ABEBF" opacity="1.000000" stroke="none" 
	d="
M199.878418,125.807716 
	C180.437027,125.789597 160.995651,125.771469 141.248596,125.456833 
	C160.304947,125.108124 179.666962,125.055931 199.464142,125.202148 
	C199.899277,125.400558 199.878418,125.807716 199.878418,125.807716 
z"/>
<path fill="#D3FFFF" opacity="1.000000" stroke="none" 
	d="
M215.007141,123.001999 
	C215.007141,123.001999 215.435089,123.009613 215.648911,123.018478 
	C215.909439,141.695541 215.956146,160.363739 216.050934,179.495361 
	C215.734772,179.840942 215.370529,179.723083 214.954681,178.834290 
	C214.897141,160.075012 214.891205,142.086685 214.922211,123.809647 
	C214.918915,123.331146 214.878662,123.141327 214.891235,122.928589 
	C214.944061,122.905655 215.007141,123.001999 215.007141,123.001999 
z"/>
<path fill="#BBF8F8" opacity="1.000000" stroke="none" 
	d="
M170.453491,180.004974 
	C169.401703,180.357025 167.893051,181.000137 166.376648,181.019043 
	C158.279419,181.119980 150.178207,180.956970 142.082596,181.109116 
	C138.003769,181.185760 133.933853,181.736252 129.430847,182.122345 
	C129.001785,182.172211 128.569244,182.023483 128.237045,181.740891 
	C127.637665,181.223907 127.370491,180.989517 127.065506,180.522919 
	C127.010948,179.531677 126.994209,178.772644 127.195435,178.010513 
	C127.413414,178.007431 127.849411,178.006546 127.849411,178.006546 
	C129.197693,178.665070 130.539200,179.879150 131.895294,179.895630 
	C144.593124,180.050095 157.293442,179.999374 170.453491,180.004974 
z"/>
<path fill="#C6F3F3" opacity="1.000000" stroke="none" 
	d="
M113.651360,142.031067 
	C114.077652,154.241425 114.100639,166.658493 114.188408,179.542603 
	C114.209190,182.414154 114.165192,184.818695 114.089622,187.677490 
	C113.704620,187.653168 113.041740,187.173996 113.042664,186.696106 
	C113.071190,171.876587 113.164612,157.057175 113.651360,142.031067 
z"/>
<path fill="#DDFCFC" opacity="1.000000" stroke="none" 
	d="
M55.082657,114.493637 
	C55.490185,114.624504 55.817585,115.215790 56.251511,116.548904 
	C56.345634,119.905182 56.333241,122.519653 56.265533,125.589317 
	C56.246532,131.994476 56.282841,137.944443 56.208893,144.356506 
	C56.050076,149.905823 56.001507,154.993042 55.952942,160.080276 
	C55.633041,158.588882 55.042999,157.098846 55.035408,155.605865 
	C54.966568,142.055557 54.999435,128.504730 55.082657,114.493637 
z"/>
<path fill="#5AA6A7" opacity="1.000000" stroke="none" 
	d="
M200.153534,125.843491 
	C199.878418,125.807716 199.899277,125.400558 199.930389,125.199387 
	C199.986954,124.241714 200.012421,123.485207 200.124237,122.361938 
	C204.740494,121.680191 209.270416,121.365204 214.230179,121.123306 
	C214.718704,121.601616 214.777390,122.006828 214.921600,122.707024 
	C215.007141,123.001999 214.944061,122.905655 214.762604,123.046906 
	C214.440353,123.375359 214.338882,123.581863 214.183105,123.878746 
	C214.089508,123.949829 213.904114,124.094345 213.457306,124.060478 
	C209.001465,124.648186 204.992447,125.269760 200.983414,125.891342 
	C200.798492,125.887314 200.613586,125.883286 200.153534,125.843491 
z"/>
<path fill="#55A6A5" opacity="1.000000" stroke="none" 
	d="
M55.983299,160.452057 
	C56.001507,154.993042 56.050076,149.905823 56.411488,144.352402 
	C56.724331,143.886215 57.123844,143.954330 57.123844,143.954330 
	C57.106731,144.425079 57.089619,144.895828 57.183647,145.916763 
	C57.475845,146.705872 57.705929,146.880081 57.985046,146.989563 
	C57.670593,149.048630 57.356140,151.107712 57.066483,153.568878 
	C57.037498,161.511856 57.157486,161.667618 65.786407,165.444489 
	C61.491295,166.348221 57.482349,166.120895 55.983299,160.452057 
z"/>
<path fill="#D8FFFF" opacity="1.000000" stroke="none" 
	d="
M70.341049,89.929001 
	C69.987022,76.841209 70.045921,63.571148 70.487122,50.069229 
	C70.830940,63.140488 70.792450,76.443604 70.341049,89.929001 
z"/>
<path fill="#DCFFFF" opacity="1.000000" stroke="none" 
	d="
M55.635895,45.069252 
	C55.958225,58.112270 55.876724,71.351799 55.446671,84.861603 
	C55.142765,71.843178 55.187416,58.554474 55.635895,45.069252 
z"/>
<path fill="#ACDCDA" opacity="1.000000" stroke="none" 
	d="
M99.022987,91.459541 
	C99.038979,91.923622 99.069069,92.361885 99.051758,92.580811 
	C98.689377,91.960854 98.044853,91.122124 98.044411,90.283058 
	C98.038284,78.702232 98.120720,67.121353 98.509155,55.269596 
	C98.893570,66.997620 98.950287,78.996536 99.022987,91.459541 
z"/>
<path fill="#CBFFFF" opacity="1.000000" stroke="none" 
	d="
M61.856819,180.610138 
	C49.563007,181.105087 37.083645,181.197601 24.110474,181.200684 
	C24.449707,180.739136 25.282736,180.043564 26.115793,180.043533 
	C37.967621,180.043060 49.819447,180.136749 61.856819,180.610138 
z"/>
<path fill="#D9FFFF" opacity="1.000000" stroke="none" 
	d="
M70.919327,151.412354 
	C70.514465,151.883514 70.247986,151.745972 70.037033,150.781067 
	C70.008133,139.078201 70.002098,128.050797 69.996071,117.023399 
	C69.996071,117.023399 70.395737,117.054955 70.595612,117.039787 
	C70.856758,128.334946 70.918030,139.645264 70.919327,151.412354 
z"/>
<path fill="#A3DFDB" opacity="1.000000" stroke="none" 
	d="
M84.967010,212.348328 
	C96.206650,211.961868 107.689186,211.962677 119.649704,211.972687 
	C119.628830,212.318588 119.129204,212.949951 118.631233,212.948654 
	C107.490685,212.919662 96.350319,212.821030 84.967010,212.348328 
z"/>
<path fill="#D1FFFF" opacity="1.000000" stroke="none" 
	d="
M127.920898,177.541687 
	C127.849411,178.006546 127.413414,178.007431 127.120987,177.682831 
	C126.779266,176.913437 126.729988,176.468643 126.787659,175.562988 
	C126.859970,168.046616 126.825333,160.991089 126.790695,153.935577 
	C126.818939,150.881149 126.847183,147.826736 126.921074,144.311005 
	C127.312653,145.334717 127.944557,146.817169 127.958031,148.305222 
	C128.044815,157.895081 127.996422,167.486145 127.920898,177.541687 
z"/>
<path fill="#A4DDDB" opacity="1.000000" stroke="none" 
	d="
M151.362396,212.924469 
	C154.262543,212.576782 157.637146,212.114883 161.019363,212.049957 
	C168.756989,211.901382 176.498337,211.946838 184.721527,211.944321 
	C183.703705,212.316116 182.205063,212.938660 180.700912,212.952316 
	C171.081375,213.039612 161.460648,212.993042 151.362396,212.924469 
z"/>
<path fill="#DDFFFF" opacity="1.000000" stroke="none" 
	d="
M184.743271,205.635925 
	C173.830917,206.088455 162.856033,206.098846 151.410461,206.061386 
	C151.587219,205.675781 152.234741,205.044006 152.882080,205.044174 
	C163.481644,205.046844 174.081177,205.129303 184.743271,205.635925 
z"/>
<path fill="#DAFFFF" opacity="1.000000" stroke="none" 
	d="
M119.743286,205.644165 
	C108.793762,206.098526 97.789352,206.108749 86.307289,206.064148 
	C86.500519,205.675049 87.171471,205.049850 87.842270,205.050003 
	C98.457664,205.052643 109.073021,205.135513 119.743286,205.644165 
z"/>
<path fill="#ADE3E7" opacity="1.000000" stroke="none" 
	d="
M83.205231,42.451836 
	C83.724792,43.443470 84.953270,44.814022 84.979401,46.207130 
	C85.141121,54.829021 85.032463,63.455982 84.764252,72.544601 
	C84.514908,73.007942 84.162399,73.007072 84.162399,73.007072 
	C84.103050,64.543541 84.073860,56.079586 83.957626,47.616833 
	C83.935722,46.022511 83.567032,44.432945 83.205231,42.451836 
z"/>
<path fill="#CDF9F9" opacity="1.000000" stroke="none" 
	d="
M98.441406,187.873993 
	C97.981766,178.308319 97.911354,168.536530 97.893753,158.283997 
	C98.299728,158.625961 98.957870,159.448151 98.959297,160.271469 
	C98.975075,169.403519 98.889107,178.535721 98.441406,187.873993 
z"/>
<path fill="#B8EBEB" opacity="1.000000" stroke="none" 
	d="
M84.090179,73.470322 
	C84.162399,73.007072 84.514908,73.007942 84.691162,73.008850 
	C84.928596,81.365402 84.989777,89.721039 85.053650,98.546165 
	C84.705154,97.403473 84.077301,95.795776 84.051048,94.178314 
	C83.941528,87.431664 84.012909,80.682083 84.090179,73.470322 
z"/>
<path fill="#AFEFF0" opacity="1.000000" stroke="none" 
	d="
M200.082809,156.520493 
	C200.455475,161.909821 200.781754,167.760223 201.051346,173.613220 
	C201.134964,175.428467 201.064667,177.250793 201.072449,179.538544 
	C200.884644,180.044327 200.689255,180.081467 200.206436,180.038742 
	C199.950851,172.300110 199.982712,164.641327 200.082809,156.520493 
z"/>
<path fill="#349E9D" opacity="1.000000" stroke="none" 
	d="
M71.465828,153.998322 
	C71.023003,153.819901 71.024361,153.641281 71.032761,153.194977 
	C74.214958,152.708893 77.390099,152.490509 80.785995,152.611526 
	C77.974510,153.299988 74.942261,153.649048 71.465828,153.998322 
z"/>
<path fill="#D3FFFF" opacity="1.000000" stroke="none" 
	d="
M221.970367,180.675720 
	C220.177048,180.935150 218.204758,180.816315 216.111389,180.292725 
	C217.923996,180.024460 219.857681,180.160965 221.970367,180.675720 
z"/>
<path fill="#AFEFF0" opacity="1.000000" stroke="none" 
	d="
M199.653702,179.953247 
	C199.431641,180.157059 198.871628,180.403366 198.139984,180.412872 
	C198.417480,180.115952 198.866608,180.055832 199.653702,179.953247 
z"/>
<path fill="#1DABAA" opacity="1.000000" stroke="none" 
	d="
M202.424637,176.982254 
	C202.032654,170.299438 202.036896,163.622757 202.429764,156.462769 
	C210.012741,154.717590 212.007690,155.604691 213.903900,161.369232 
	C213.907135,166.886322 213.882889,171.930893 213.858643,176.975449 
	C210.175278,173.479553 206.500397,177.206970 202.424637,176.982254 
z"/>
<path fill="#22ACAB" opacity="1.000000" stroke="none" 
	d="
M126.680710,176.023849 
	C126.729988,176.468643 126.779266,176.913437 126.903008,177.685913 
	C126.994209,178.772644 127.010948,179.531677 127.029663,180.833542 
	C127.020660,181.583420 127.009674,181.790482 126.998695,181.997543 
	C126.683281,181.898193 126.145615,181.872513 126.084747,181.688812 
	C124.212143,176.037766 120.331009,176.044983 115.367508,177.969406 
	C114.990143,172.617630 114.995033,167.263931 115.464363,161.450958 
	C119.260941,160.993759 122.593079,160.995819 125.951027,161.462234 
	C126.211456,166.625671 126.446083,171.324753 126.680710,176.023849 
z"/>
<path fill="#5AA6A7" opacity="1.000000" stroke="none" 
	d="
M213.918259,177.250046 
	C213.882889,171.930893 213.907135,166.886322 213.933960,160.933685 
	C213.604019,155.017609 213.271530,150.009613 212.961761,144.560196 
	C213.018188,141.776398 213.051910,139.434021 213.085632,137.091644 
	C213.375168,133.734314 213.664703,130.376968 213.940857,126.236580 
	C213.919678,125.000465 213.911880,124.547409 213.904114,124.094345 
	C213.904114,124.094345 214.089508,123.949829 214.331223,123.957977 
	C214.572937,123.966133 214.885269,124.098343 214.885269,124.098343 
	C214.891205,142.086685 214.897141,160.075012 214.819153,178.524551 
	C214.482773,178.498718 214.230316,178.011673 213.918259,177.250046 
z"/>
<path fill="#25ACAD" opacity="1.000000" stroke="none" 
	d="
M183.023743,178.219482 
	C183.001831,177.999390 183.442383,177.999313 183.661591,177.999039 
	C183.749588,178.371490 183.618378,178.744202 183.487167,179.116928 
	C183.339996,178.891144 183.192841,178.665375 183.023743,178.219482 
z"/>
<path fill="#25ACAD" opacity="1.000000" stroke="none" 
	d="
M127.278229,181.992401 
	C127.009674,181.790482 127.020660,181.583420 127.067490,181.065735 
	C127.370491,180.989517 127.637665,181.223907 128.010559,181.709229 
	C127.930107,181.969193 127.743935,181.978226 127.278229,181.992401 
z"/>
<path fill="#119494" opacity="1.000000" stroke="none" 
	d="
M212.807480,136.862579 
	C213.051910,139.434021 213.018188,141.776398 212.548523,144.563568 
	C208.749588,145.343170 205.386612,145.677994 202.023636,146.012817 
	C202.007233,143.984421 201.990829,141.956024 201.966064,139.496643 
	C205.397690,137.890381 207.960846,132.903732 212.807480,136.862579 
z"/>
<path fill="#339595" opacity="1.000000" stroke="none" 
	d="
M213.457306,124.060478 
	C213.911880,124.547409 213.919678,125.000465 213.895386,125.794937 
	C209.772217,126.242737 205.681137,126.349136 201.286728,126.173439 
	C204.992447,125.269760 209.001465,124.648186 213.457306,124.060478 
z"/>
<path fill="#55A6A5" opacity="1.000000" stroke="none" 
	d="
M69.611526,116.872032 
	C70.002098,128.050797 70.008133,139.078201 69.934891,150.570679 
	C68.972580,148.661697 68.089554,146.287613 67.517395,143.385162 
	C68.251488,140.870468 69.015121,138.888870 69.042603,136.897110 
	C69.218620,124.139191 69.165474,124.138458 56.320843,125.134117 
	C56.333241,122.519653 56.345634,119.905182 56.368137,116.872673 
	C60.661160,116.543304 64.944077,116.631989 69.611526,116.872032 
z"/>
<path fill="#128C8C" opacity="1.000000" stroke="none" 
	d="
M56.265533,125.589317 
	C69.165474,124.138458 69.218620,124.139191 69.042603,136.897110 
	C69.015121,138.888870 68.251488,140.870468 67.451721,143.013214 
	C64.005386,143.397858 60.935600,143.626038 57.494827,143.904266 
	C57.123844,143.954330 56.724331,143.886215 56.521736,143.890320 
	C56.282841,137.944443 56.246532,131.994476 56.265533,125.589317 
z"/>
<path fill="#128C8C" opacity="1.000000" stroke="none" 
	d="
M57.878605,146.801712 
	C57.705929,146.880081 57.475845,146.705872 57.204933,146.269623 
	C57.383881,146.192413 57.602913,146.372925 57.878605,146.801712 
z"/>
<path fill="#169C9C" opacity="1.000000" stroke="none" 
	d="
M115.039413,153.980316 
	C115.027214,152.010849 115.175110,150.024399 114.968285,148.075562 
	C114.581161,144.427826 116.791847,142.822525 119.752777,142.452484 
	C122.937195,142.054520 124.446030,144.314667 124.837051,147.226120 
	C125.054077,148.842056 124.964302,150.499191 124.573921,152.569931 
	C121.103165,153.328186 118.071289,153.654251 115.039413,153.980316 
z"/>
<path fill="#1BA5A6" opacity="1.000000" stroke="none" 
	d="
M115.026962,154.418884 
	C118.071289,153.654251 121.103165,153.328186 124.571808,153.004745 
	C125.141708,153.302734 125.331711,153.555313 125.787750,154.330200 
	C125.973030,156.929474 125.949120,158.963684 125.925217,160.997894 
	C122.593079,160.995819 119.260941,160.993759 115.474686,160.981689 
	C115.018547,158.933609 115.016533,156.895523 115.026962,154.418884 
z"/>
<path fill="#57AEAF" opacity="1.000000" stroke="none" 
	d="
M125.951027,161.462234 
	C125.949120,158.963684 125.973030,156.929474 125.987396,154.461060 
	C125.977859,154.026855 126.383095,153.970505 126.586899,153.953033 
	C126.825333,160.991089 126.859970,168.046616 126.787659,175.562988 
	C126.446083,171.324753 126.211456,166.625671 125.951027,161.462234 
z"/>
<path fill="#179E9E" opacity="1.000000" stroke="none" 
	d="
M202.014832,146.465668 
	C205.386612,145.677994 208.749588,145.343170 212.525803,145.004974 
	C213.271530,150.009613 213.604019,155.017609 213.906464,160.461151 
	C212.007690,155.604691 210.012741,154.717590 202.440918,155.995041 
	C202.044296,152.979919 202.025146,149.949219 202.014832,146.465668 
z"/>
<path fill="#97C8C8" opacity="1.000000" stroke="none" 
	d="
M214.922211,123.809647 
	C214.885269,124.098343 214.572937,123.966133 214.424820,123.886902 
	C214.338882,123.581863 214.440353,123.375359 214.709778,123.069839 
	C214.878662,123.141327 214.918915,123.331146 214.922211,123.809647 
z"/>
</svg>